<svg version="1.0" xmlns="http://www.w3.org/2000/svg" width="933.333" height="933.333" viewBox="0 0 700 700"><path d="M337.6 2c-5.6 2.2-10.9 6.9-12.7 11.1-1.3 3.2-2.2 3.5-12.2 4.4-3.7.4-7.6.8-8.5.9-.9.2-3.9.7-6.5 1-5.4.8-5.9.9-17.2 3.2-63.9 12.8-125.9 46.3-172.5 93.3-14.1 14.2-20.8 22.1-32.8 38-30.9 41.2-52.3 90.2-61.7 141.6-1 4.9-1.9 9.8-2 10.7-.2.9-.6 4.4-1 7.7-.3 3.3-.8 6.8-1 7.9-.2 1.1-.6 7.5-1 14.3C6 380.4 10.6 418.2 23.7 461c2.4 7.9 9.9 28.3 12 32.6 21.4 44.1 34.4 64.2 59.8 92.9 40.5 45.8 99.2 82.8 158 99.6 12.4 3.6 28.1 7.3 35.5 8.4 2.5.4 5.4.9 6.5 1.1 1.1.2 3.6.6 5.5.9 1.9.3 5.1.7 7 1 19.4 2.7 62.4 2.7 84 0 6-.7 23.9-3.7 28-4.7 2.5-.5 5.9-1.2 7.5-1.5 3.5-.6 24.3-6.5 33-9.5 18.4-6.1 43.9-17.8 61.1-27.9 7.6-4.5 23.7-14.7 26.9-17.2 5.5-4.1 22.1-17.2 22.5-17.6.3-.3 2.3-2.1 4.5-4 13.6-11.4 30.6-29.5 44.2-46.8 23.8-30.5 42.4-64.9 54.6-101.3 3.2-9.4 7-22.4 8.3-28.3.3-1.2.6-2.7.8-3.2.2-.6.6-2.8 1.1-5 .4-2.2.9-4.9 1.2-6 .2-1.1 1-5.6 1.8-10 6.4-36 6.2-79.8-.5-116.2-.5-3.2-1.3-7.2-1.6-8.8-5.5-30.4-21.1-72.1-37.4-100-2.9-5-5.8-9.9-6.4-11-1.5-2.7-12.8-19.9-13.5-20.5-.4-.3-3.3-4.1-6.5-8.4-11.7-15.8-34.2-39.6-48.8-51.6-3.4-2.9-6.5-5.6-6.8-5.9-.3-.4-5-4-10.5-8.1a350.06 350.06 0 0 0-106.2-53.8c-11.2-3.5-17.1-5-30.6-7.7-1-.2-2.6-.6-3.5-.9-2.1-.6-21.4-3.4-28.4-4.2-5.6-.5-12.5-1.2-14.4-1.3-.6-.1-1.7-1.5-2.4-3.1-4.2-10.1-20.6-15.7-32.4-11z"/></svg>