<?xml version="1.0" encoding="UTF-8"?>
<svg xmlns="http://www.w3.org/2000/svg" xmlns:xlink="http://www.w3.org/1999/xlink" width="24px" height="24px" viewBox="0 0 24 24" version="1.1">
<g id="surface1">
<path style=" stroke:none;fill-rule:nonzero;fill:rgb(94.901961%,47.843137%,62.745098%);fill-opacity:1;" d="M 12.039062 0.0195312 C 5.421875 0.0195312 0.0390625 5.402344 0.0390625 12.019531 C 0.0390625 18.636719 5.421875 24.019531 12.039062 24.019531 C 18.65625 24.019531 24.039062 18.636719 24.039062 12.019531 C 24.039062 5.402344 18.65625 0.0195312 12.039062 0.0195312 Z M 12.039062 22.019531 C 6.523438 22.019531 2.039062 17.535156 2.039062 12.019531 C 2.039062 6.507812 6.523438 2.019531 12.039062 2.019531 C 17.550781 2.019531 22.039062 6.507812 22.039062 12.019531 C 22.039062 17.535156 17.550781 22.019531 12.039062 22.019531 Z M 16.804688 7.914062 L 13.347656 12.019531 L 16.804688 16.125 C 17.160156 16.546875 17.105469 17.179688 16.683594 17.535156 C 16.496094 17.691406 16.265625 17.769531 16.039062 17.769531 C 15.753906 17.769531 15.472656 17.648438 15.273438 17.414062 L 12.039062 13.570312 L 8.804688 17.414062 C 8.605469 17.648438 8.324219 17.769531 8.035156 17.769531 C 7.808594 17.769531 7.582031 17.691406 7.394531 17.535156 C 6.972656 17.179688 6.914062 16.546875 7.273438 16.125 L 10.730469 12.019531 L 7.273438 7.914062 C 6.917969 7.492188 6.972656 6.859375 7.394531 6.507812 C 7.816406 6.148438 8.449219 6.203125 8.800781 6.625 L 12.035156 10.46875 L 15.273438 6.625 C 15.625 6.207031 16.257812 6.148438 16.679688 6.507812 C 17.101562 6.859375 17.15625 7.492188 16.800781 7.914062 Z M 16.804688 7.914062 "/>
</g>
</svg>
