<?xml version="1.0" standalone="no"?>
<!DOCTYPE svg PUBLIC "-//W3C//DTD SVG 20010904//EN"
 "http://www.w3.org/TR/2001/REC-SVG-20010904/DTD/svg10.dtd">
<svg version="1.0" xmlns="http://www.w3.org/2000/svg"
 width="700.000000pt" height="700.000000pt" viewBox="0 0 700.000000 700.000000"
 preserveAspectRatio="xMidYMid meet">
<metadata>
Created by potrace 1.14, written by Peter Selinger 2001-2017
</metadata>
<g transform="translate(0.000000,700.000000) scale(0.100000,-0.100000)"
fill="#000000" stroke="none">
<path d="M3376 6980 c-56 -22 -109 -69 -127 -111 -13 -32 -22 -35 -122 -44
-37 -4 -76 -8 -85 -9 -9 -2 -39 -7 -65 -10 -54 -8 -59 -9 -172 -32 -639 -128
-1259 -463 -1725 -933 -141 -142 -208 -221 -328 -380 -309 -412 -523 -902
-617 -1416 -10 -49 -19 -98 -20 -107 -2 -9 -6 -44 -10 -77 -3 -33 -8 -68 -10
-79 -2 -11 -6 -75 -10 -143 -25 -443 21 -821 152 -1249 24 -79 99 -283 120
-326 214 -441 344 -642 598 -929 405 -458 992 -828 1580 -996 124 -36 281 -73
355 -84 25 -4 54 -9 65 -11 11 -2 36 -6 55 -9 19 -3 51 -7 70 -10 194 -27 624
-27 840 0 60 7 239 37 280 47 25 5 59 12 75 15 35 6 243 65 330 95 184 61 439
178 611 279 76 45 237 147 269 172 55 41 221 172 225 176 3 3 23 21 45 40 136
114 306 295 442 468 238 305 424 649 546 1013 32 94 70 224 83 283 3 12 6 27
8 32 2 6 6 28 11 50 4 22 9 49 12 60 2 11 10 56 18 100 64 360 62 798 -5 1162
-5 32 -13 72 -16 88 -55 304 -211 721 -374 1000 -29 50 -58 99 -64 110 -15 27
-128 199 -135 205 -4 3 -33 41 -65 84 -117 158 -342 396 -488 516 -34 29 -65
56 -68 59 -3 4 -50 40 -105 81 -321 239 -681 421 -1062 538 -112 35 -171 50
-306 77 -10 2 -26 6 -35 9 -21 6 -214 34 -284 42 -56 5 -125 12 -144 13 -6 1
-17 15 -24 31 -42 101 -206 157 -324 110z"/>
</g>
</svg>
