<?xml version="1.0" encoding="UTF-8"?>
<svg xmlns="http://www.w3.org/2000/svg" xmlns:xlink="http://www.w3.org/1999/xlink" width="24px" height="24px" viewBox="0 0 24 24" version="1.1">
<g id="surface1">
<path style=" stroke:none;fill-rule:nonzero;fill:rgb(59.215686%,88.235294%,94.509804%);fill-opacity:1;" d="M 2 3 C 2 2.449219 2.449219 2 3 2 L 11 2 L 11 9 L 18 9 L 18 10.003906 C 18.585938 9.574219 19.273438 9.273438 20 9.128906 L 20 7.585938 L 12.414062 0 L 3 0 C 1.347656 0 0 1.347656 0 3 L 0 24 L 9 24 L 9 22 L 2 22 Z M 13 3.414062 L 16.585938 7 L 13 7 Z M 23.121094 11.878906 C 21.988281 10.746094 20.011719 10.746094 18.878906 11.878906 L 11 19.757812 L 11 24 L 15.242188 24 L 23.121094 16.121094 C 23.6875 15.554688 24 14.800781 24 14 C 24 13.199219 23.6875 12.445312 23.121094 11.878906 Z M 21.707031 14.707031 L 14.414062 22 L 13 22 L 13 20.585938 L 20.292969 13.292969 C 20.671875 12.914062 21.328125 12.914062 21.707031 13.292969 C 21.894531 13.480469 22 13.730469 22 14 C 22 14.269531 21.894531 14.519531 21.707031 14.707031 Z M 21.707031 14.707031 "/>
</g>
</svg>
